<?xml version="1.0" encoding="utf-8" standalone="no"?>
<!DOCTYPE svg PUBLIC "-//W3C//DTD SVG 1.1//EN"
  "http://www.w3.org/Graphics/SVG/1.1/DTD/svg11.dtd">
<svg xmlns:xlink="http://www.w3.org/1999/xlink" width="460.8pt" height="345.6pt" viewBox="0 0 460.8 345.6" xmlns="http://www.w3.org/2000/svg" version="1.1">
 <metadata>
  <rdf:RDF xmlns:dc="http://purl.org/dc/elements/1.1/" xmlns:cc="http://creativecommons.org/ns#" xmlns:rdf="http://www.w3.org/1999/02/22-rdf-syntax-ns#">
   <cc:Work>
    <dc:type rdf:resource="http://purl.org/dc/dcmitype/StillImage"/>
    <dc:date>2024-04-26T10:46:13.821747</dc:date>
    <dc:format>image/svg+xml</dc:format>
    <dc:creator>
     <cc:Agent>
      <dc:title>Matplotlib v3.8.2, https://matplotlib.org/</dc:title>
     </cc:Agent>
    </dc:creator>
   </cc:Work>
  </rdf:RDF>
 </metadata>
 <defs>
  <style type="text/css">*{stroke-linejoin: round; stroke-linecap: butt}</style>
 </defs>
 <g id="figure_1">
  <g id="patch_1">
   <path d="M 0 345.6
L 460.8 345.6
L 460.8 0
L 0 0
z
" style="fill: #ffffff"/>
  </g>
  <g id="axes_1">
   <g id="patch_2">
    <path d="M 57.6 307.584
L 414.72 307.584
L 414.72 41.472
L 57.6 41.472
z
" style="fill: #ffffff"/>
   </g>
   <g id="LineCollection_1">
    <path d="M 357.695724 282.06331
L 396.544818 293.714576
" clip-path="url(#p813c9d7c81)" style="fill: none; stroke: #000000"/>
    <path d="M 357.695724 282.06331
L 390.355599 258.246101
" clip-path="url(#p813c9d7c81)" style="fill: none; stroke: #000000"/>
    <path d="M 396.544818 293.714576
L 390.355599 258.246101
" clip-path="url(#p813c9d7c81)" style="fill: none; stroke: #000000"/>
   </g>
   <g id="matplotlib.axis_1">
    <g id="xtick_1"/>
    <g id="xtick_2"/>
    <g id="xtick_3"/>
    <g id="xtick_4"/>
    <g id="xtick_5"/>
    <g id="xtick_6"/>
    <g id="xtick_7"/>
    <g id="xtick_8"/>
    <g id="xtick_9"/>
   </g>
   <g id="matplotlib.axis_2">
    <g id="ytick_1"/>
    <g id="ytick_2"/>
    <g id="ytick_3"/>
    <g id="ytick_4"/>
    <g id="ytick_5"/>
    <g id="ytick_6"/>
    <g id="ytick_7"/>
    <g id="ytick_8"/>
   </g>
   <g id="PathCollection_1">
    <defs>
     <path id="medf060eb02" d="M 0 8.660254
C 2.296726 8.660254 4.499694 7.747755 6.123724 6.123724
C 7.747755 4.499694 8.660254 2.296726 8.660254 0
C 8.660254 -2.296726 7.747755 -4.499694 6.123724 -6.123724
C 4.499694 -7.747755 2.296726 -8.660254 0 -8.660254
C -2.296726 -8.660254 -4.499694 -7.747755 -6.123724 -6.123724
C -7.747755 -4.499694 -8.660254 -2.296726 -8.660254 0
C -8.660254 2.296726 -7.747755 4.499694 -6.123724 6.123724
C -4.499694 7.747755 -2.296726 8.660254 0 8.660254
z
" style="stroke: #1f78b4"/>
    </defs>
    <g clip-path="url(#p813c9d7c81)">
     <use xlink:href="#medf060eb02" x="357.695724" y="282.06331" style="fill: #1f78b4; stroke: #1f78b4"/>
     <use xlink:href="#medf060eb02" x="396.544818" y="293.714576" style="fill: #1f78b4; stroke: #1f78b4"/>
     <use xlink:href="#medf060eb02" x="390.355599" y="258.246101" style="fill: #1f78b4; stroke: #1f78b4"/>
     <use xlink:href="#medf060eb02" x="187.877583" y="53.568" style="fill: #1f78b4; stroke: #1f78b4"/>
     <use xlink:href="#medf060eb02" x="73.832727" y="212.247015" style="fill: #1f78b4; stroke: #1f78b4"/>
    </g>
   </g>
   <g id="patch_3">
    <path d="M 57.6 307.584
L 57.6 41.472
" style="fill: none; stroke: #000000; stroke-width: 0.8; stroke-linejoin: miter; stroke-linecap: square"/>
   </g>
   <g id="patch_4">
    <path d="M 414.72 307.584
L 414.72 41.472
" style="fill: none; stroke: #000000; stroke-width: 0.8; stroke-linejoin: miter; stroke-linecap: square"/>
   </g>
   <g id="patch_5">
    <path d="M 57.6 307.584
L 414.72 307.584
" style="fill: none; stroke: #000000; stroke-width: 0.8; stroke-linejoin: miter; stroke-linecap: square"/>
   </g>
   <g id="patch_6">
    <path d="M 57.6 41.472
L 414.72 41.472
" style="fill: none; stroke: #000000; stroke-width: 0.8; stroke-linejoin: miter; stroke-linecap: square"/>
   </g>
   <g id="text_1">
    <g clip-path="url(#p813c9d7c81)">
     <!-- Z0 -->
     <g transform="translate(349.768224 285.37456) scale(0.12 -0.12)">
      <defs>
       <path id="DejaVuSans-5a" d="M 359 4666
L 4025 4666
L 4025 4184
L 1075 531
L 4097 531
L 4097 0
L 288 0
L 288 481
L 3238 4134
L 359 4134
L 359 4666
z
" transform="scale(0.015625)"/>
       <path id="DejaVuSans-30" d="M 2034 4250
Q 1547 4250 1301 3770
Q 1056 3291 1056 2328
Q 1056 1369 1301 889
Q 1547 409 2034 409
Q 2525 409 2770 889
Q 3016 1369 3016 2328
Q 3016 3291 2770 3770
Q 2525 4250 2034 4250
z
M 2034 4750
Q 2819 4750 3233 4129
Q 3647 3509 3647 2328
Q 3647 1150 3233 529
Q 2819 -91 2034 -91
Q 1250 -91 836 529
Q 422 1150 422 2328
Q 422 3509 836 4129
Q 1250 4750 2034 4750
z
" transform="scale(0.015625)"/>
      </defs>
      <use xlink:href="#DejaVuSans-5a"/>
      <use xlink:href="#DejaVuSans-30" x="68.505859"/>
     </g>
    </g>
   </g>
   <g id="text_2">
    <g clip-path="url(#p813c9d7c81)">
     <!-- Z1 -->
     <g transform="translate(388.617318 297.025826) scale(0.12 -0.12)">
      <defs>
       <path id="DejaVuSans-31" d="M 794 531
L 1825 531
L 1825 4091
L 703 3866
L 703 4441
L 1819 4666
L 2450 4666
L 2450 531
L 3481 531
L 3481 0
L 794 0
L 794 531
z
" transform="scale(0.015625)"/>
      </defs>
      <use xlink:href="#DejaVuSans-5a"/>
      <use xlink:href="#DejaVuSans-31" x="68.505859"/>
     </g>
    </g>
   </g>
   <g id="text_3">
    <g clip-path="url(#p813c9d7c81)">
     <!-- Z0 Z1 -->
     <g transform="translate(372.593724 261.557351) scale(0.12 -0.12)">
      <defs>
       <path id="DejaVuSans-20" transform="scale(0.015625)"/>
      </defs>
      <use xlink:href="#DejaVuSans-5a"/>
      <use xlink:href="#DejaVuSans-30" x="68.505859"/>
      <use xlink:href="#DejaVuSans-20" x="132.128906"/>
      <use xlink:href="#DejaVuSans-5a" x="163.916016"/>
      <use xlink:href="#DejaVuSans-31" x="232.421875"/>
     </g>
    </g>
   </g>
   <g id="text_4">
    <g clip-path="url(#p813c9d7c81)">
     <!-- X0 X1 -->
     <g transform="translate(170.115708 56.87925) scale(0.12 -0.12)">
      <defs>
       <path id="DejaVuSans-58" d="M 403 4666
L 1081 4666
L 2241 2931
L 3406 4666
L 4084 4666
L 2584 2425
L 4184 0
L 3506 0
L 2194 1984
L 872 0
L 191 0
L 1856 2491
L 403 4666
z
" transform="scale(0.015625)"/>
      </defs>
      <use xlink:href="#DejaVuSans-58"/>
      <use xlink:href="#DejaVuSans-30" x="68.505859"/>
      <use xlink:href="#DejaVuSans-20" x="132.128906"/>
      <use xlink:href="#DejaVuSans-58" x="163.916016"/>
      <use xlink:href="#DejaVuSans-31" x="232.421875"/>
     </g>
    </g>
   </g>
   <g id="text_5">
    <g clip-path="url(#p813c9d7c81)">
     <!-- Y0 Y1 -->
     <g transform="translate(56.961477 215.558265) scale(0.12 -0.12)">
      <defs>
       <path id="DejaVuSans-59" d="M -13 4666
L 666 4666
L 1959 2747
L 3244 4666
L 3922 4666
L 2272 2222
L 2272 0
L 1638 0
L 1638 2222
L -13 4666
z
" transform="scale(0.015625)"/>
      </defs>
      <use xlink:href="#DejaVuSans-59"/>
      <use xlink:href="#DejaVuSans-30" x="61.083984"/>
      <use xlink:href="#DejaVuSans-20" x="124.707031"/>
      <use xlink:href="#DejaVuSans-59" x="156.494141"/>
      <use xlink:href="#DejaVuSans-31" x="217.578125"/>
     </g>
    </g>
   </g>
  </g>
 </g>
 <defs>
  <clipPath id="p813c9d7c81">
   <rect x="57.6" y="41.472" width="357.12" height="266.112"/>
  </clipPath>
 </defs>
</svg>
