<?xml version="1.0" encoding="utf-8" standalone="no"?>
<!DOCTYPE svg PUBLIC "-//W3C//DTD SVG 1.1//EN"
  "http://www.w3.org/Graphics/SVG/1.1/DTD/svg11.dtd">
<svg xmlns:xlink="http://www.w3.org/1999/xlink" width="460.8pt" height="345.6pt" viewBox="0 0 460.8 345.6" xmlns="http://www.w3.org/2000/svg" version="1.1">
 <metadata>
  <rdf:RDF xmlns:dc="http://purl.org/dc/elements/1.1/" xmlns:cc="http://creativecommons.org/ns#" xmlns:rdf="http://www.w3.org/1999/02/22-rdf-syntax-ns#">
   <cc:Work>
    <dc:type rdf:resource="http://purl.org/dc/dcmitype/StillImage"/>
    <dc:date>2024-04-26T10:43:57.415513</dc:date>
    <dc:format>image/svg+xml</dc:format>
    <dc:creator>
     <cc:Agent>
      <dc:title>Matplotlib v3.8.2, https://matplotlib.org/</dc:title>
     </cc:Agent>
    </dc:creator>
   </cc:Work>
  </rdf:RDF>
 </metadata>
 <defs>
  <style type="text/css">*{stroke-linejoin: round; stroke-linecap: butt}</style>
 </defs>
 <g id="figure_1">
  <g id="patch_1">
   <path d="M 0 345.6
L 460.8 345.6
L 460.8 0
L 0 0
z
" style="fill: #ffffff"/>
  </g>
  <g id="axes_1">
   <g id="patch_2">
    <path d="M 57.6 307.584
L 414.72 307.584
L 414.72 41.472
L 57.6 41.472
z
" style="fill: #ffffff"/>
   </g>
   <g id="LineCollection_1">
    <path d="M 167.97958 280.748806
L 88.589752 245.350964
" clip-path="url(#pfee947f291)" style="fill: none; stroke: #000000"/>
    <path d="M 167.97958 280.748806
L 375.811796 246.111274
" clip-path="url(#pfee947f291)" style="fill: none; stroke: #000000"/>
    <path d="M 167.97958 280.748806
L 304.829143 284.491636
" clip-path="url(#pfee947f291)" style="fill: none; stroke: #000000"/>
    <path d="M 167.97958 280.748806
L 186.653792 172.99412
" clip-path="url(#pfee947f291)" style="fill: none; stroke: #000000"/>
    <path d="M 167.97958 280.748806
L 290.733944 173.612553
" clip-path="url(#pfee947f291)" style="fill: none; stroke: #000000"/>
    <path d="M 88.589752 245.350964
L 375.811796 246.111274
" clip-path="url(#pfee947f291)" style="fill: none; stroke: #000000"/>
    <path d="M 88.589752 245.350964
L 304.829143 284.491636
" clip-path="url(#pfee947f291)" style="fill: none; stroke: #000000"/>
    <path d="M 88.589752 245.350964
L 186.653792 172.99412
" clip-path="url(#pfee947f291)" style="fill: none; stroke: #000000"/>
    <path d="M 88.589752 245.350964
L 290.733944 173.612553
" clip-path="url(#pfee947f291)" style="fill: none; stroke: #000000"/>
    <path d="M 375.811796 246.111274
L 304.829143 284.491636
" clip-path="url(#pfee947f291)" style="fill: none; stroke: #000000"/>
    <path d="M 375.811796 246.111274
L 186.653792 172.99412
" clip-path="url(#pfee947f291)" style="fill: none; stroke: #000000"/>
    <path d="M 375.811796 246.111274
L 290.733944 173.612553
" clip-path="url(#pfee947f291)" style="fill: none; stroke: #000000"/>
    <path d="M 304.829143 284.491636
L 186.653792 172.99412
" clip-path="url(#pfee947f291)" style="fill: none; stroke: #000000"/>
    <path d="M 304.829143 284.491636
L 290.733944 173.612553
" clip-path="url(#pfee947f291)" style="fill: none; stroke: #000000"/>
    <path d="M 312.625707 65.546316
L 101.021543 101.394905
" clip-path="url(#pfee947f291)" style="fill: none; stroke: #000000"/>
    <path d="M 312.625707 65.546316
L 383.730248 102.929336
" clip-path="url(#pfee947f291)" style="fill: none; stroke: #000000"/>
    <path d="M 312.625707 65.546316
L 174.809715 64.564364
" clip-path="url(#pfee947f291)" style="fill: none; stroke: #000000"/>
    <path d="M 312.625707 65.546316
L 186.653792 172.99412
" clip-path="url(#pfee947f291)" style="fill: none; stroke: #000000"/>
    <path d="M 312.625707 65.546316
L 290.733944 173.612553
" clip-path="url(#pfee947f291)" style="fill: none; stroke: #000000"/>
    <path d="M 101.021543 101.394905
L 383.730248 102.929336
" clip-path="url(#pfee947f291)" style="fill: none; stroke: #000000"/>
    <path d="M 101.021543 101.394905
L 174.809715 64.564364
" clip-path="url(#pfee947f291)" style="fill: none; stroke: #000000"/>
    <path d="M 101.021543 101.394905
L 186.653792 172.99412
" clip-path="url(#pfee947f291)" style="fill: none; stroke: #000000"/>
    <path d="M 101.021543 101.394905
L 290.733944 173.612553
" clip-path="url(#pfee947f291)" style="fill: none; stroke: #000000"/>
    <path d="M 383.730248 102.929336
L 174.809715 64.564364
" clip-path="url(#pfee947f291)" style="fill: none; stroke: #000000"/>
    <path d="M 383.730248 102.929336
L 186.653792 172.99412
" clip-path="url(#pfee947f291)" style="fill: none; stroke: #000000"/>
    <path d="M 383.730248 102.929336
L 290.733944 173.612553
" clip-path="url(#pfee947f291)" style="fill: none; stroke: #000000"/>
    <path d="M 174.809715 64.564364
L 186.653792 172.99412
" clip-path="url(#pfee947f291)" style="fill: none; stroke: #000000"/>
    <path d="M 174.809715 64.564364
L 290.733944 173.612553
" clip-path="url(#pfee947f291)" style="fill: none; stroke: #000000"/>
    <path d="M 186.653792 172.99412
L 290.733944 173.612553
" clip-path="url(#pfee947f291)" style="fill: none; stroke: #000000"/>
   </g>
   <g id="matplotlib.axis_1">
    <g id="xtick_1"/>
    <g id="xtick_2"/>
    <g id="xtick_3"/>
    <g id="xtick_4"/>
    <g id="xtick_5"/>
   </g>
   <g id="matplotlib.axis_2">
    <g id="ytick_1"/>
    <g id="ytick_2"/>
    <g id="ytick_3"/>
    <g id="ytick_4"/>
    <g id="ytick_5"/>
   </g>
   <g id="PathCollection_1">
    <defs>
     <path id="m7e0c4f9d5b" d="M 0 8.660254
C 2.296726 8.660254 4.499694 7.747755 6.123724 6.123724
C 7.747755 4.499694 8.660254 2.296726 8.660254 0
C 8.660254 -2.296726 7.747755 -4.499694 6.123724 -6.123724
C 4.499694 -7.747755 2.296726 -8.660254 0 -8.660254
C -2.296726 -8.660254 -4.499694 -7.747755 -6.123724 -6.123724
C -7.747755 -4.499694 -8.660254 -2.296726 -8.660254 0
C -8.660254 2.296726 -7.747755 4.499694 -6.123724 6.123724
C -4.499694 7.747755 -2.296726 8.660254 0 8.660254
z
" style="stroke: #1f78b4"/>
    </defs>
    <g clip-path="url(#pfee947f291)">
     <use xlink:href="#m7e0c4f9d5b" x="167.97958" y="280.748806" style="fill: #1f78b4; stroke: #1f78b4"/>
     <use xlink:href="#m7e0c4f9d5b" x="88.589752" y="245.350964" style="fill: #1f78b4; stroke: #1f78b4"/>
     <use xlink:href="#m7e0c4f9d5b" x="375.811796" y="246.111274" style="fill: #1f78b4; stroke: #1f78b4"/>
     <use xlink:href="#m7e0c4f9d5b" x="304.829143" y="284.491636" style="fill: #1f78b4; stroke: #1f78b4"/>
     <use xlink:href="#m7e0c4f9d5b" x="312.625707" y="65.546316" style="fill: #1f78b4; stroke: #1f78b4"/>
     <use xlink:href="#m7e0c4f9d5b" x="101.021543" y="101.394905" style="fill: #1f78b4; stroke: #1f78b4"/>
     <use xlink:href="#m7e0c4f9d5b" x="383.730248" y="102.929336" style="fill: #1f78b4; stroke: #1f78b4"/>
     <use xlink:href="#m7e0c4f9d5b" x="174.809715" y="64.564364" style="fill: #1f78b4; stroke: #1f78b4"/>
     <use xlink:href="#m7e0c4f9d5b" x="186.653792" y="172.99412" style="fill: #1f78b4; stroke: #1f78b4"/>
     <use xlink:href="#m7e0c4f9d5b" x="290.733944" y="173.612553" style="fill: #1f78b4; stroke: #1f78b4"/>
    </g>
   </g>
   <g id="patch_3">
    <path d="M 57.6 307.584
L 57.6 41.472
" style="fill: none; stroke: #000000; stroke-width: 0.8; stroke-linejoin: miter; stroke-linecap: square"/>
   </g>
   <g id="patch_4">
    <path d="M 414.72 307.584
L 414.72 41.472
" style="fill: none; stroke: #000000; stroke-width: 0.8; stroke-linejoin: miter; stroke-linecap: square"/>
   </g>
   <g id="patch_5">
    <path d="M 57.6 307.584
L 414.72 307.584
" style="fill: none; stroke: #000000; stroke-width: 0.8; stroke-linejoin: miter; stroke-linecap: square"/>
   </g>
   <g id="patch_6">
    <path d="M 57.6 41.472
L 414.72 41.472
" style="fill: none; stroke: #000000; stroke-width: 0.8; stroke-linejoin: miter; stroke-linecap: square"/>
   </g>
   <g id="text_1">
    <g clip-path="url(#pfee947f291)">
     <!-- Z0 -->
     <g transform="translate(160.05208 284.060056) scale(0.12 -0.12)">
      <defs>
       <path id="DejaVuSans-5a" d="M 359 4666
L 4025 4666
L 4025 4184
L 1075 531
L 4097 531
L 4097 0
L 288 0
L 288 481
L 3238 4134
L 359 4134
L 359 4666
z
" transform="scale(0.015625)"/>
       <path id="DejaVuSans-30" d="M 2034 4250
Q 1547 4250 1301 3770
Q 1056 3291 1056 2328
Q 1056 1369 1301 889
Q 1547 409 2034 409
Q 2525 409 2770 889
Q 3016 1369 3016 2328
Q 3016 3291 2770 3770
Q 2525 4250 2034 4250
z
M 2034 4750
Q 2819 4750 3233 4129
Q 3647 3509 3647 2328
Q 3647 1150 3233 529
Q 2819 -91 2034 -91
Q 1250 -91 836 529
Q 422 1150 422 2328
Q 422 3509 836 4129
Q 1250 4750 2034 4750
z
" transform="scale(0.015625)"/>
      </defs>
      <use xlink:href="#DejaVuSans-5a"/>
      <use xlink:href="#DejaVuSans-30" x="68.505859"/>
     </g>
    </g>
   </g>
   <g id="text_2">
    <g clip-path="url(#pfee947f291)">
     <!-- Z1 -->
     <g transform="translate(80.662252 248.662214) scale(0.12 -0.12)">
      <defs>
       <path id="DejaVuSans-31" d="M 794 531
L 1825 531
L 1825 4091
L 703 3866
L 703 4441
L 1819 4666
L 2450 4666
L 2450 531
L 3481 531
L 3481 0
L 794 0
L 794 531
z
" transform="scale(0.015625)"/>
      </defs>
      <use xlink:href="#DejaVuSans-5a"/>
      <use xlink:href="#DejaVuSans-31" x="68.505859"/>
     </g>
    </g>
   </g>
   <g id="text_3">
    <g clip-path="url(#pfee947f291)">
     <!-- Z2 -->
     <g transform="translate(367.884296 249.422524) scale(0.12 -0.12)">
      <defs>
       <path id="DejaVuSans-32" d="M 1228 531
L 3431 531
L 3431 0
L 469 0
L 469 531
Q 828 903 1448 1529
Q 2069 2156 2228 2338
Q 2531 2678 2651 2914
Q 2772 3150 2772 3378
Q 2772 3750 2511 3984
Q 2250 4219 1831 4219
Q 1534 4219 1204 4116
Q 875 4013 500 3803
L 500 4441
Q 881 4594 1212 4672
Q 1544 4750 1819 4750
Q 2544 4750 2975 4387
Q 3406 4025 3406 3419
Q 3406 3131 3298 2873
Q 3191 2616 2906 2266
Q 2828 2175 2409 1742
Q 1991 1309 1228 531
z
" transform="scale(0.015625)"/>
      </defs>
      <use xlink:href="#DejaVuSans-5a"/>
      <use xlink:href="#DejaVuSans-32" x="68.505859"/>
     </g>
    </g>
   </g>
   <g id="text_4">
    <g clip-path="url(#pfee947f291)">
     <!-- Z3 -->
     <g transform="translate(296.901643 287.802886) scale(0.12 -0.12)">
      <defs>
       <path id="DejaVuSans-33" d="M 2597 2516
Q 3050 2419 3304 2112
Q 3559 1806 3559 1356
Q 3559 666 3084 287
Q 2609 -91 1734 -91
Q 1441 -91 1130 -33
Q 819 25 488 141
L 488 750
Q 750 597 1062 519
Q 1375 441 1716 441
Q 2309 441 2620 675
Q 2931 909 2931 1356
Q 2931 1769 2642 2001
Q 2353 2234 1838 2234
L 1294 2234
L 1294 2753
L 1863 2753
Q 2328 2753 2575 2939
Q 2822 3125 2822 3475
Q 2822 3834 2567 4026
Q 2313 4219 1838 4219
Q 1578 4219 1281 4162
Q 984 4106 628 3988
L 628 4550
Q 988 4650 1302 4700
Q 1616 4750 1894 4750
Q 2613 4750 3031 4423
Q 3450 4097 3450 3541
Q 3450 3153 3228 2886
Q 3006 2619 2597 2516
z
" transform="scale(0.015625)"/>
      </defs>
      <use xlink:href="#DejaVuSans-5a"/>
      <use xlink:href="#DejaVuSans-33" x="68.505859"/>
     </g>
    </g>
   </g>
   <g id="text_5">
    <g clip-path="url(#pfee947f291)">
     <!-- X0 Y1 Y2 X3 -->
     <g transform="translate(276.085707 68.857566) scale(0.12 -0.12)">
      <defs>
       <path id="DejaVuSans-58" d="M 403 4666
L 1081 4666
L 2241 2931
L 3406 4666
L 4084 4666
L 2584 2425
L 4184 0
L 3506 0
L 2194 1984
L 872 0
L 191 0
L 1856 2491
L 403 4666
z
" transform="scale(0.015625)"/>
       <path id="DejaVuSans-20" transform="scale(0.015625)"/>
       <path id="DejaVuSans-59" d="M -13 4666
L 666 4666
L 1959 2747
L 3244 4666
L 3922 4666
L 2272 2222
L 2272 0
L 1638 0
L 1638 2222
L -13 4666
z
" transform="scale(0.015625)"/>
      </defs>
      <use xlink:href="#DejaVuSans-58"/>
      <use xlink:href="#DejaVuSans-30" x="68.505859"/>
      <use xlink:href="#DejaVuSans-20" x="132.128906"/>
      <use xlink:href="#DejaVuSans-59" x="163.916016"/>
      <use xlink:href="#DejaVuSans-31" x="225"/>
      <use xlink:href="#DejaVuSans-20" x="288.623047"/>
      <use xlink:href="#DejaVuSans-59" x="320.410156"/>
      <use xlink:href="#DejaVuSans-32" x="381.494141"/>
      <use xlink:href="#DejaVuSans-20" x="445.117188"/>
      <use xlink:href="#DejaVuSans-58" x="476.904297"/>
      <use xlink:href="#DejaVuSans-33" x="545.410156"/>
     </g>
    </g>
   </g>
   <g id="text_6">
    <g clip-path="url(#pfee947f291)">
     <!-- Y0 X1 X2 Y3 -->
     <g transform="translate(64.481543 104.706155) scale(0.12 -0.12)">
      <use xlink:href="#DejaVuSans-59"/>
      <use xlink:href="#DejaVuSans-30" x="61.083984"/>
      <use xlink:href="#DejaVuSans-20" x="124.707031"/>
      <use xlink:href="#DejaVuSans-58" x="156.494141"/>
      <use xlink:href="#DejaVuSans-31" x="225"/>
      <use xlink:href="#DejaVuSans-20" x="288.623047"/>
      <use xlink:href="#DejaVuSans-58" x="320.410156"/>
      <use xlink:href="#DejaVuSans-32" x="388.916016"/>
      <use xlink:href="#DejaVuSans-20" x="452.539062"/>
      <use xlink:href="#DejaVuSans-59" x="484.326172"/>
      <use xlink:href="#DejaVuSans-33" x="545.410156"/>
     </g>
    </g>
   </g>
   <g id="text_7">
    <g clip-path="url(#pfee947f291)">
     <!-- X0 X1 Y2 Y3 -->
     <g transform="translate(347.190248 106.240586) scale(0.12 -0.12)">
      <use xlink:href="#DejaVuSans-58"/>
      <use xlink:href="#DejaVuSans-30" x="68.505859"/>
      <use xlink:href="#DejaVuSans-20" x="132.128906"/>
      <use xlink:href="#DejaVuSans-58" x="163.916016"/>
      <use xlink:href="#DejaVuSans-31" x="232.421875"/>
      <use xlink:href="#DejaVuSans-20" x="296.044922"/>
      <use xlink:href="#DejaVuSans-59" x="327.832031"/>
      <use xlink:href="#DejaVuSans-32" x="388.916016"/>
      <use xlink:href="#DejaVuSans-20" x="452.539062"/>
      <use xlink:href="#DejaVuSans-59" x="484.326172"/>
      <use xlink:href="#DejaVuSans-33" x="545.410156"/>
     </g>
    </g>
   </g>
   <g id="text_8">
    <g clip-path="url(#pfee947f291)">
     <!-- Y0 Y1 X2 X3 -->
     <g transform="translate(138.269715 67.875614) scale(0.12 -0.12)">
      <use xlink:href="#DejaVuSans-59"/>
      <use xlink:href="#DejaVuSans-30" x="61.083984"/>
      <use xlink:href="#DejaVuSans-20" x="124.707031"/>
      <use xlink:href="#DejaVuSans-59" x="156.494141"/>
      <use xlink:href="#DejaVuSans-31" x="217.578125"/>
      <use xlink:href="#DejaVuSans-20" x="281.201172"/>
      <use xlink:href="#DejaVuSans-58" x="312.988281"/>
      <use xlink:href="#DejaVuSans-32" x="381.494141"/>
      <use xlink:href="#DejaVuSans-20" x="445.117188"/>
      <use xlink:href="#DejaVuSans-58" x="476.904297"/>
      <use xlink:href="#DejaVuSans-33" x="545.410156"/>
     </g>
    </g>
   </g>
   <g id="text_9">
    <g clip-path="url(#pfee947f291)">
     <!-- Z0 Z1 -->
     <g transform="translate(168.891917 176.30537) scale(0.12 -0.12)">
      <use xlink:href="#DejaVuSans-5a"/>
      <use xlink:href="#DejaVuSans-30" x="68.505859"/>
      <use xlink:href="#DejaVuSans-20" x="132.128906"/>
      <use xlink:href="#DejaVuSans-5a" x="163.916016"/>
      <use xlink:href="#DejaVuSans-31" x="232.421875"/>
     </g>
    </g>
   </g>
   <g id="text_10">
    <g clip-path="url(#pfee947f291)">
     <!-- Z2 Z3 -->
     <g transform="translate(272.972069 176.923803) scale(0.12 -0.12)">
      <use xlink:href="#DejaVuSans-5a"/>
      <use xlink:href="#DejaVuSans-32" x="68.505859"/>
      <use xlink:href="#DejaVuSans-20" x="132.128906"/>
      <use xlink:href="#DejaVuSans-5a" x="163.916016"/>
      <use xlink:href="#DejaVuSans-33" x="232.421875"/>
     </g>
    </g>
   </g>
  </g>
 </g>
 <defs>
  <clipPath id="pfee947f291">
   <rect x="57.6" y="41.472" width="357.12" height="266.112"/>
  </clipPath>
 </defs>
</svg>
